<?xml version="1.0" encoding="utf-8"?>
<!-- Generator: Adobe Illustrator 15.0.0, SVG Export Plug-In . SVG Version: 6.00 Build 0)  -->
<!DOCTYPE svg PUBLIC "-//W3C//DTD SVG 1.1//EN" "http://www.w3.org/Graphics/SVG/1.1/DTD/svg11.dtd">
<svg version="1.1" id="Ebene_1" xmlns="http://www.w3.org/2000/svg" xmlns:xlink="http://www.w3.org/1999/xlink" x="0px" y="0px"
	 width="127.559px" height="127.559px" viewBox="0 0 127.559 127.559" enable-background="new 0 0 127.559 127.559"
	 xml:space="preserve">
<g>
	<g>
		<path fill="#E52520" d="M47.371,91.131l-0.727,0.339c-0.451,0.211-0.572,0.542-0.361,0.993l3.463,7.426
			c0.211,0.453,0.547,0.57,1.009,0.354l0.791-0.369c0.409-0.19,0.51-0.511,0.298-0.964l-3.462-7.426
			C48.17,91.033,47.834,90.915,47.371,91.131z"/>
		<path fill="#E52520" d="M69.163,80.97l-1.016,0.474l1.949,4.18l1.016-0.474c0.464-0.216,0.564-0.604,0.304-1.163l-1.167-2.502
			C69.988,80.925,69.626,80.753,69.163,80.97z"/>
		<path fill="#E52520" d="M41.027,94.089l-0.904,0.422l2.138,4.583l0.984-0.459c0.409-0.191,0.508-0.511,0.298-0.962l-1.507-3.229
			C41.826,93.991,41.49,93.874,41.027,94.089z"/>
		<path fill="#E52520" d="M49.593,82.772L45.409,73.8c-0.254-0.546-0.662-0.689-1.22-0.43l-0.879,0.41
			c-0.546,0.254-0.691,0.655-0.437,1.202l4.184,8.972c0.256,0.548,0.662,0.69,1.223,0.429l0.955-0.445
			C49.729,83.707,49.848,83.319,49.593,82.772z"/>
		<path fill="#E52520" d="M74.589,61.214l-2.586,1.206l9.783,20.98l2.777-1.296c0.978-0.456,1.275-1.094,0.891-1.918l-8.272-17.74
			C76.559,61.109,75.693,60.699,74.589,61.214z"/>
		<path fill="#E52520" d="M93.735,59.985l-2.014-4.319c-0.623-1.335-1.488-1.747-2.594-1.231l-2.198,1.025l3.885,8.33l1.734-0.809
			C93.962,62.321,94.36,61.324,93.735,59.985z"/>
		<path fill="#E52520" d="M87.042,35.09l-3.835,11.863L71.648,52.35l3.836-11.861L87.042,35.09L25.147,63.952
			c0.494,1.063,0.035,2.326-1.029,2.822c-1.063,0.496-2.326,0.036-2.823-1.026l-4.073,1.899l21.476,46.055l76.842-35.831
			L94.063,31.816L87.042,35.09z M53.212,50.886l11.558-5.398l-3.836,11.863l-11.557,5.397L53.212,50.886z M65.637,68.547
			l0.791,1.697l-2.456,1.146l2.175,4.662l2.77-1.291l0.791,1.696l-4.643,2.165l-6.531-14.006l4.643-2.165l0.791,1.696l-2.77,1.292
			l1.983,4.253L65.637,68.547z M56.779,65.435L63.31,79.44l-1.873,0.873l-6.531-14.006L56.779,65.435z M55.444,79.07L51.98,67.672
			l1.854-0.864l4.268,15.061l-2.223,1.036l-8.795-12.95l1.854-0.864L55.444,79.07z M30.939,61.285l11.56-5.396L38.664,67.75
			l-11.559,5.396L30.939,61.285z M40.436,87.019l-1.443,0.673l-4.497-5.979l4.47,9.079l-1.872,0.873l-6.531-14.006l2.068-0.964
			l5.573,7.422l-2.102-9.041l2.067-0.964l6.531,14.006l-1.873,0.873l-4.079-9.261L40.436,87.019z M45.145,97.061
			c0.612,1.313,0.299,2.26-0.938,2.836l-1.292,0.603l1.957,4.198l-1.551,0.723l-5.405-11.592l2.826-1.317
			c1.248-0.582,2.182-0.211,2.799,1.112L45.145,97.061z M53.446,98.301c0.612,1.313,0.294,2.262-0.953,2.843l-1.453,0.678
			c-1.249,0.583-2.18,0.217-2.792-1.097l-3.561-7.636c-0.617-1.322-0.308-2.274,0.931-2.852l1.485-0.692
			c1.237-0.577,2.165-0.202,2.782,1.12L53.446,98.301z M45.249,84.966l-4.303-9.228c-0.746-1.6-0.371-2.748,1.125-3.445l1.795-0.837
			c1.495-0.697,2.615-0.246,3.361,1.353l4.303,9.229c0.74,1.586,0.355,2.73-1.152,3.434l-1.756,0.818
			C47.113,86.993,45.989,86.552,45.249,84.966z M56.305,89.048l-1.55,0.723l-0.475-1.018c-0.216-0.463-0.55-0.588-1.002-0.377
			l-0.241,0.112c-0.441,0.206-0.555,0.539-0.339,1.002l0.896,1.922c0.1,0.215,0.21,0.341,0.332,0.376
			c0.121,0.034,0.307,0.067,0.555,0.095l1.838,0.106c0.408,0.031,0.703,0.068,0.886,0.106c0.183,0.04,0.345,0.115,0.487,0.224
			c0.144,0.112,0.311,0.371,0.501,0.78l1.151,2.47c0.607,1.303,0.288,2.245-0.961,2.827l-0.951,0.443
			c-1.239,0.578-2.188,0.155-2.852-1.265l-0.271-0.582l1.55-0.723l0.293,0.63c0.212,0.453,0.547,0.57,1.01,0.354l0.274-0.129
			c0.409-0.19,0.509-0.511,0.298-0.964l-0.919-1.969c-0.101-0.216-0.211-0.341-0.332-0.375c-0.122-0.036-0.306-0.066-0.555-0.097
			l-1.854-0.138c-0.403-0.021-0.703-0.058-0.906-0.108c-0.2-0.051-0.376-0.154-0.528-0.312c-0.152-0.159-0.298-0.389-0.439-0.69
			l-1.106-2.373c-0.616-1.323-0.308-2.274,0.931-2.853l0.968-0.45c1.238-0.578,2.166-0.203,2.783,1.12L56.305,89.048z
			 M60.753,84.891l-1.485,0.692l4.75,10.187l-1.55,0.723l-4.75-10.187l-1.485,0.693l-0.655-1.406l4.521-2.107L60.753,84.891z
			 M65.484,82.685l-2.293,1.069l1.642,3.519l2.033-0.948l0.655,1.404l-2.034,0.948l1.799,3.857l2.293-1.068l0.655,1.405
			l-3.843,1.792l-5.406-11.592l3.844-1.792L65.484,82.685z M74.851,90.718L71.65,86.51l-0.937,0.437l2.184,4.683l-1.55,0.723
			l-5.405-11.591l3.034-1.415c1.185-0.553,2.086-0.166,2.703,1.157l1.332,2.856c0.472,1.012,0.463,1.797-0.026,2.352l3.334,4.323
			L74.851,90.718z M89.426,79.038c1.247,2.675,0.391,4.701-2.565,6.079l-7.21,3.362L66.739,60.79l6.438-3.002
			c3.473-1.619,6.034-0.655,7.689,2.895L89.426,79.038z M104.295,71.963c1.283,2.752,0.525,4.78-2.278,6.087l-7.442,3.471
			L81.663,53.831l6.324-2.949c3.292-1.536,5.717-0.632,7.275,2.71l2.482,5.324c0.743,1.594,0.312,2.983-1.296,4.17l0.09,0.193
			c2.294-0.381,3.802,0.201,4.521,1.743L104.295,71.963z"/>
		<path fill="#E52520" d="M94.422,66.192l-2.044,0.953l4.334,9.294l2.776-1.295c0.977-0.455,1.281-1.082,0.909-1.88l-2.86-6.132
			C96.927,65.821,95.888,65.509,94.422,66.192z"/>
	</g>
	<path fill="#E52520" d="M83.995,15.812c-0.733-1.037-3.333-3.232-6.553-0.966L12.021,60.849l6.491,9.233l0.822-0.578v0.002
		l0.822-0.579l2.809-1.975c-0.705-0.086-1.351-0.517-1.673-1.207c-0.497-1.065-0.037-2.328,1.028-2.825
		c1.065-0.497,2.328-0.037,2.825,1.028c0.209,0.447,0.24,0.928,0.137,1.374L86.217,22.47l1.646-1.156L83.995,15.812z M30.88,61.383
		l-12.194-2.58l10.434-7.338l12.194,2.58L30.88,61.383z M50.985,47.244l-12.193-2.58l10.434-7.336l12.195,2.579L50.985,47.244z
		 M71.092,33.103l-12.195-2.579l10.435-7.337l12.195,2.58L71.092,33.103z"/>
</g>
</svg>
